<svg enable-background="new 0 0 511 94" viewBox="0 0 511 94" xmlns="http://www.w3.org/2000/svg"><path d="m486.14 58.13c1.97 6.01 7.8 7.36 12.07 7.36 6.35 0 11.79-3.03 11.79-8.93 0-1.91-.62-6.35-7.41-8.31l-4.32-1.68c-1.46-.56-2.7-1.24-2.7-2.47 0-1.46 1.63-2.36 3.2-2.36 1.29 0 3.37.45 4.1 2.75l6.46-2.98c-2.7-5.17-7.08-6.06-10.39-6.06-6.18 0-11.29 3.03-11.29 8.82 0 1.29.34 5.84 7.19 8.25l5.05 2.13c1.57.56 2.13 1.24 2.13 2.19 0 1.46-1.91 2.19-3.76 2.19-2.3 0-5.22-1.01-6.06-4.32zm-5-22.07h-8.37v3.93c-1.97-2.64-5.33-4.55-9.21-4.55-8.98 0-13.87 6.79-13.87 14.88 0 8.42 5.28 15.16 14.04 15.16 4.21 0 6.96-1.85 9.04-4.83v3.14c0 6.29-4.6 7.58-8.93 7.58-3.2 0-6.96-1.8-8.65-3.26l-3.31 6.51c2.92 2.36 7.24 3.99 13.64 3.99 8.2 0 15.61-4.44 15.61-15.78v-26.77zm-23.08 14.32c0-4.44 2.58-8.14 7.19-8.14 4.55 0 7.75 3.26 7.75 8.59 0 5.22-3.43 7.86-7.52 7.86-4.61 0-7.42-3.71-7.42-8.31m-41.1 14.48h8.37v-15.44c0-3.99 1.63-7.07 5.5-7.07s5.33 3.03 5.33 7.02v15.5h8.37v-15.67c0-7.3-2.19-13.76-10.28-13.76-3.48 0-6.51 1.18-8.93 4.55v-3.93h-8.37v28.8zm-16.68-36.44c0 2.75 2.25 4.66 5.28 4.66 2.98 0 5.33-1.91 5.33-4.66 0-2.81-2.36-4.77-5.33-4.77-3.03 0-5.28 1.96-5.28 4.77m9.38 7.64h-8.37v28.81h8.37zm-37.06 41.94v-17.07c1.97 2.64 5.33 4.55 9.21 4.55 8.98 0 13.87-6.79 13.87-14.88 0-8.42-5.28-15.16-14.04-15.16-4.21 0-6.96 1.85-9.04 4.83v-4.21h-8.37v41.94zm14.71-27.46c0 4.44-2.58 8.14-7.19 8.14-4.55 0-7.75-3.26-7.75-8.59 0-5.22 3.43-7.86 7.52-7.86 4.62 0 7.42 3.71 7.42 8.31m-30.32-14.48h-8.37v15.44c0 3.99-1.63 7.07-5.5 7.07s-5.33-3.03-5.33-7.02v-15.5h-8.37v15.67c0 7.3 2.19 13.76 10.28 13.76 3.48 0 6.51-1.18 8.93-4.55v3.93h8.37v-28.8zm-56.15 14.37c0-4.49 3.59-7.8 7.69-7.8 4.16 0 7.69 3.37 7.69 7.8 0 4.49-3.54 7.86-7.69 7.86-4.09 0-7.69-3.31-7.69-7.86m-8.14 0c0 9.04 7.47 15.05 15.83 15.05 8.42 0 15.83-6.06 15.83-15.05 0-8.93-7.41-14.99-15.83-14.99-8.36 0-15.83 6.01-15.83 14.99m-12.24-14.37h-8.14v28.81h8.37v-15.67c0-3.82 3.14-5.67 6.29-5.67.84 0 2.36.11 3.54.39v-8.25c-.9-.17-1.18-.22-2.13-.22-2.53 0-6.96 1.68-7.92 6.91v-6.3zm-50.76 9.15c0 11.12 8.82 20.27 20.89 20.27 3.59 0 9.49-.79 15.33-6.01v-16h-18.08v6.96h9.94v5.62c-2.08 1.01-4.83 1.46-7.24 1.46-7.13 0-12.13-5.11-12.13-12.18 0-5.67 3.26-12.41 12.8-12.41 3.87-.06 7.41 1.97 9.55 3.54l4.32-6.46c-4.04-3.03-8.2-5.05-14.15-5.05-13.14-.01-21.23 9.31-21.23 20.26m-20.55 19.65v-39.3h-8.7v17.07h-14.94v-17.07h-8.7v39.31h8.7v-15.34h14.94v15.33zm-49.92-39.3v24.43c0 5.45-3.54 8.2-7.58 8.2s-7.52-2.75-7.52-8.2v-24.43h-8.7v24.43c0 10.11 7.41 15.5 16.23 15.5s16.28-5.39 16.28-15.5v-24.43z" fill="#004e59"/><path d="m18.41 56.9c-6.71 3.64-12.67 8.67-17.41 14.81l.14.19c10.38 13.32 26.49 21.34 43.63 21.34 4.74 0 9.56-.61 14.35-1.9 12.18-3.26 22.32-10.35 29.47-19.62v-.01c-2.79-3.62-6.04-6.91-9.69-9.77-3.75 2.03-7.8 3.66-12.1 4.81-4.79 1.28-9.61 1.9-14.35 1.9-12.5 0-24.46-4.27-34.04-11.75" fill="#52c4b5"/><path d="m96.22 63.67c-2.79 2.4-5.36 5.08-7.64 8.03v.01l.14.18c2.24 2.88 4.76 5.49 7.49 7.85-.96-2.49-1.51-5.19-1.51-8.03.01-2.84.56-5.54 1.52-8.04" fill="#52c4b5"/><path d="m44.77 1.02c-17.21 0-33.4 8.09-43.77 21.52l.14.19c4.72 6.05 10.62 11.02 17.27 14.62 9.58-7.48 21.54-11.75 34.04-11.75 4.74 0 9.55.61 14.35 1.9 4.3 1.15 8.35 2.78 12.1 4.81 3.65-2.86 6.9-6.14 9.69-9.77l-.01-.01c-7.15-9.27-17.28-16.35-29.46-19.62-4.8-1.28-9.61-1.89-14.35-1.89" fill="#00a6b2"/><path d="m96.22 14.51c-2.79 2.4-5.36 5.08-7.64 8.03v.01l.14.18c2.24 2.88 4.76 5.49 7.49 7.85-.96-2.49-1.51-5.19-1.51-8.03.01-2.84.56-5.55 1.52-8.04" fill="#00a6b2"/><path d="m78.9 32.31c-5.69 4.46-12.36 7.87-19.78 9.85-4.79 1.29-9.61 1.9-14.35 1.9-9.34 0-18.38-2.39-26.36-6.72-3.61 2.82-6.89 6.1-9.73 9.77l.14.19c2.81 3.6 6.03 6.82 9.58 9.59 7.97-4.33 17.01-6.71 26.36-6.71 4.74 0 9.55.61 14.35 1.9 7.42 1.99 14.09 5.4 19.78 9.85 6.87-3.73 12.75-8.81 17.38-14.81h-.01c-4.62-6-10.49-11.08-17.36-14.81" fill="#0d7078"/><path d="m44.77 50.18c-9.34 0-18.39 2.39-26.36 6.72 9.58 7.48 21.54 11.75 34.04 11.75 4.74 0 9.56-.61 14.35-1.9 4.3-1.15 8.35-2.78 12.1-4.81-5.69-4.46-12.36-7.87-19.78-9.86-4.8-1.28-9.61-1.9-14.35-1.9" fill="#005254"/><path d="m52.45 25.6c-12.5 0-24.46 4.27-34.04 11.75 7.97 4.33 17.01 6.72 26.36 6.72 4.74 0 9.56-.61 14.35-1.9 7.42-1.99 14.09-5.4 19.78-9.85-3.75-2.03-7.79-3.66-12.1-4.81-4.8-1.3-9.61-1.91-14.35-1.91" fill="#004252"/><path d="m1.01 39.09c.96 2.49 1.51 5.19 1.51 8.03s-.55 5.54-1.52 8.04c2.79-2.41 5.36-5.08 7.64-8.03l-.14-.19c-2.24-2.88-4.76-5.5-7.49-7.85" fill="#0d7078"/></svg>